<svg width="20" height="20" fill="none" xmlns="http://www.w3.org/2000/svg"><path d="M17.303 10.424c.328-.434.51-.965.51-1.518 0-.877-.49-1.707-1.28-2.17a1.321 1.321 0 00-.67-.181H11.18l.117-2.4a2.091 2.091 0 00-.576-1.551 2.082 2.082 0 00-1.522-.653 2.27 2.27 0 00-2.183 1.662L5.338 9.688H2.812a.624.624 0 00-.624.624v7.11c0 .346.279.625.624.625h11.745c.18 0 .355-.035.517-.106a2.511 2.511 0 001.424-3.035 2.513 2.513 0 00.404-2.24c.328-.434.51-.965.51-1.518a2.668 2.668 0 00-.11-.724zM3.593 16.64v-5.547h1.583v5.547H3.594zm12.43-6.895l-.427.371.271.496a1.115 1.115 0 01-.248 1.373l-.428.371.272.497a1.116 1.116 0 01-.248 1.373l-.428.37.272.497a1.11 1.11 0 01-.521 1.545H6.425V11.03l1.943-7.04a.861.861 0 01.824-.632.694.694 0 01.697.727L9.704 7.96h6.14c.348.213.563.572.563.945 0 .323-.14.627-.383.84z" fill="#fff"/></svg>